<svg width="115" height="24" viewBox="0 0 115 24" fill="none" xmlns="http://www.w3.org/2000/svg">
<path d="M2.87592e-06 23.2457V1.42756H5.27344V18.9631H14.3501V23.2457H2.87592e-06ZM16.7256 23.2457V6.88211H21.9351V23.2457H16.7256ZM19.3357 4.97515C18.6041 4.97515 17.9756 4.73367 17.45 4.25071C16.9245 3.76066 16.6617 3.17117 16.6617 2.48225C16.6617 1.80043 16.9245 1.21804 17.45 0.735089C17.9756 0.245032 18.6041 2.86102e-06 19.3357 2.86102e-06C20.0743 2.86102e-06 20.7029 0.245032 21.2213 0.735089C21.7469 1.21804 22.0097 1.80043 22.0097 2.48225C22.0097 3.17117 21.7469 3.76066 21.2213 4.25071C20.7029 4.73367 20.0743 4.97515 19.3357 4.97515ZM34.1969 6.88211V10.7173H23.6713V6.88211H34.1969ZM25.8659 23.2457V6.05114C25.8659 4.78694 26.1039 3.73935 26.5797 2.90838C27.0556 2.07032 27.7161 1.44532 28.5613 1.03338C29.4064 0.61435 30.383 0.404832 31.4909 0.404832C32.2154 0.404832 32.8972 0.461651 33.5364 0.575288C34.1827 0.681822 34.6621 0.777703 34.9746 0.86293L34.1436 4.67685C33.9519 4.61293 33.7175 4.55966 33.4405 4.51705C33.1706 4.47443 32.915 4.45313 32.6735 4.45313C32.0627 4.45313 31.6436 4.58807 31.4164 4.85796C31.1891 5.12785 31.0755 5.49716 31.0755 5.96591V23.2457H25.8659ZM43.4704 23.5547C41.7588 23.5547 40.2815 23.2173 39.0386 22.5426C37.8028 21.8608 36.8511 20.8913 36.1835 19.6342C35.523 18.37 35.1927 16.8679 35.1927 15.1278C35.1927 13.4375 35.5265 11.9602 36.1942 10.696C36.8618 9.42472 37.8028 8.4375 39.0173 7.73438C40.2318 7.02415 41.6629 6.66904 43.3106 6.66904C44.4754 6.66904 45.5408 6.85015 46.5067 7.21236C47.4726 7.57458 48.3071 8.1108 49.0102 8.82103C49.7133 9.53125 50.2602 10.4084 50.6508 11.4524C51.0415 12.4894 51.2368 13.679 51.2368 15.0213V16.321H37.0145V13.2955H46.3895C46.3824 12.7415 46.251 12.2479 45.9953 11.8146C45.7396 11.3814 45.3881 11.044 44.9406 10.8026C44.5003 10.554 43.9925 10.4297 43.4172 10.4297C42.8348 10.4297 42.3128 10.5611 41.8511 10.8239C41.3895 11.0795 41.0237 11.4311 40.7538 11.8786C40.4839 12.3189 40.3419 12.8196 40.3277 13.3807V16.4595C40.3277 17.1271 40.4591 17.7131 40.7219 18.2173C40.9846 18.7145 41.3575 19.1016 41.8405 19.3786C42.3234 19.6555 42.8987 19.794 43.5663 19.794C44.028 19.794 44.447 19.7301 44.8234 19.6023C45.1998 19.4744 45.523 19.2862 45.7929 19.0376C46.0628 18.7891 46.2652 18.4837 46.4001 18.1215L51.1835 18.2599C50.9846 19.3324 50.5479 20.2663 49.8731 21.0618C49.2055 21.8501 48.3284 22.4645 47.2417 22.9048C46.1551 23.3381 44.898 23.5547 43.4704 23.5547Z" fill="#F40A07"/>
<path d="M72.1119 1.42756V23.2457H67.6374L58.9549 10.6534H58.8164V23.2457H53.543V1.42756H58.0813L66.668 13.9986H66.8491V1.42756H72.1119ZM79.6862 23.5227C78.6421 23.5227 77.7153 23.3487 76.9056 23.0007C76.1031 22.6456 75.4674 22.1129 74.9987 21.4027C74.537 20.6854 74.3062 19.7869 74.3062 18.7074C74.3062 17.7983 74.466 17.0313 74.7856 16.4063C75.1052 15.7813 75.5455 15.2734 76.1066 14.8828C76.6677 14.4922 77.314 14.1974 78.0455 13.9986C78.7771 13.7926 79.5583 13.6541 80.3893 13.5831C81.3197 13.4979 82.069 13.4091 82.6372 13.3168C83.2053 13.2173 83.6173 13.0788 83.873 12.9013C84.1357 12.7166 84.2671 12.4574 84.2671 12.1236V12.0703C84.2671 11.5234 84.0789 11.1009 83.7025 10.8026C83.3261 10.5043 82.8183 10.3551 82.1791 10.3551C81.4901 10.3551 80.9362 10.5043 80.5171 10.8026C80.0981 11.1009 79.8318 11.5128 79.7181 12.0384L74.9134 11.8679C75.0555 10.8736 75.4213 9.9858 76.0107 9.20455C76.6073 8.4162 77.4241 7.7983 78.461 7.35086C79.5051 6.89631 80.7586 6.66904 82.2217 6.66904C83.2657 6.66904 84.2281 6.79333 85.1088 7.04191C85.9894 7.28338 86.7565 7.6385 87.4099 8.10725C88.0633 8.5689 88.5676 9.13708 88.9227 9.81179C89.2849 10.4865 89.466 11.2571 89.466 12.1236V23.2457H84.5654V20.9659H84.4376C84.1464 21.5199 83.7735 21.9886 83.319 22.3722C82.8715 22.7557 82.3424 23.0433 81.7316 23.2351C81.1279 23.4269 80.4461 23.5227 79.6862 23.5227ZM81.2948 20.1136C81.8559 20.1136 82.3602 20 82.8076 19.7727C83.2622 19.5455 83.6244 19.233 83.8943 18.8352C84.1642 18.4304 84.2991 17.9617 84.2991 17.429V15.8736C84.1499 15.9517 83.9688 16.0227 83.7558 16.0867C83.5498 16.1506 83.3225 16.2109 83.074 16.2678C82.8254 16.3246 82.5697 16.3743 82.3069 16.4169C82.0441 16.4595 81.792 16.4986 81.5505 16.5341C81.0605 16.6122 80.6414 16.733 80.2934 16.8963C79.9525 17.0597 79.6897 17.2727 79.5051 17.5355C79.3275 17.7912 79.2387 18.0966 79.2387 18.4517C79.2387 18.9915 79.4305 19.4034 79.814 19.6875C80.2046 19.9716 80.6982 20.1136 81.2948 20.1136ZM107.585 6.88211L101.97 23.2457H96.0043L90.4006 6.88211H95.8871L98.902 18.1534H99.0724L102.098 6.88211H107.585ZM109.228 23.2457V6.88211H114.437V23.2457H109.228ZM111.838 4.97515C111.106 4.97515 110.478 4.73367 109.952 4.25071C109.426 3.76066 109.164 3.17117 109.164 2.48225C109.164 1.80043 109.426 1.21804 109.952 0.735089C110.478 0.245032 111.106 2.86102e-06 111.838 2.86102e-06C112.576 2.86102e-06 113.205 0.245032 113.723 0.735089C114.249 1.21804 114.512 1.80043 114.512 2.48225C114.512 3.17117 114.249 3.76066 113.723 4.25071C113.205 4.73367 112.576 4.97515 111.838 4.97515Z" fill="black"/>
</svg>
